<svg viewBox="0 0 1200 700" preserveAspectRatio="xMidYMid slice" xmlns="http://www.w3.org/2000/svg">
  <defs>
    <linearGradient id="bg" x1="0" y1="0" x2="1" y2="1">
      <stop offset="0" stop-color="#f7fbff" />
      <stop offset="0.55" stop-color="#f7f5ff" />
      <stop offset="1" stop-color="#f4fffb" />
    </linearGradient>
    <radialGradient id="glowA" cx="20%" cy="18%" r="70%">
      <stop offset="0" stop-color="#22d3ee" stop-opacity="0.18" />
      <stop offset="1" stop-color="#22d3ee" stop-opacity="0" />
    </radialGradient>
    <radialGradient id="glowB" cx="82%" cy="22%" r="72%">
      <stop offset="0" stop-color="#a78bfa" stop-opacity="0.16" />
      <stop offset="1" stop-color="#a78bfa" stop-opacity="0" />
    </radialGradient>
    <radialGradient id="glowC" cx="72%" cy="86%" r="78%">
      <stop offset="0" stop-color="#60a5fa" stop-opacity="0.14" />
      <stop offset="1" stop-color="#60a5fa" stop-opacity="0" />
    </radialGradient>

    <linearGradient id="cardTeal" x1="0" y1="0" x2="1" y2="1">
      <stop offset="0" stop-color="#11d5c3" />
      <stop offset="1" stop-color="#14b8a6" />
    </linearGradient>
    <linearGradient id="blueEdge" x1="0" y1="0" x2="1" y2="1">
      <stop offset="0" stop-color="#2563eb" />
      <stop offset="1" stop-color="#3b82f6" />
    </linearGradient>
    <linearGradient id="pathGrad" x1="0" y1="0" x2="1" y2="0">
      <stop offset="0" stop-color="#60a5fa" stop-opacity="0.55" />
      <stop offset="0.55" stop-color="#22c55e" stop-opacity="0.55" />
      <stop offset="1" stop-color="#a78bfa" stop-opacity="0.55" />
    </linearGradient>

    <filter id="shadowSoft" x="-30%" y="-30%" width="160%" height="160%">
      <feDropShadow dx="0" dy="14" stdDeviation="18" flood-color="#0f172a" flood-opacity="0.12" />
    </filter>
    <filter id="shadowTiny" x="-30%" y="-30%" width="160%" height="160%">
      <feDropShadow dx="0" dy="10" stdDeviation="10" flood-color="#0f172a" flood-opacity="0.10" />
    </filter>
  </defs>

  <rect width="1200" height="700" fill="url(#bg)" />
  <rect width="1200" height="700" fill="url(#glowA)" />
  <rect width="1200" height="700" fill="url(#glowB)" />
  <rect width="1200" height="700" fill="url(#glowC)" />

  <path
    d="M120 520c200-160 320-150 520-42s320 96 530-70"
    fill="none"
    stroke="url(#pathGrad)"
    stroke-width="4"
    stroke-linecap="round"
    stroke-dasharray="4 10"
    opacity="0.9"
  />

  <g transform="translate(120 220)" filter="url(#shadowSoft)">
    <rect x="0" y="0" width="260" height="170" rx="28" fill="url(#cardTeal)" opacity="0.96" />
    <path
      d="M78 88l36 36 78-96"
      fill="none"
      stroke="#ffffff"
      stroke-width="16"
      stroke-linecap="round"
      stroke-linejoin="round"
      opacity="0.95"
    />
  </g>

  <g transform="translate(860 140)" filter="url(#shadowSoft)">
    <rect x="0" y="0" width="230" height="420" rx="34" fill="#ffffff" />
    <rect x="12" y="12" width="206" height="396" rx="28" fill="#ffffff" stroke="url(#blueEdge)" stroke-width="10" />
    <rect x="88" y="22" width="54" height="16" rx="8" fill="#2563eb" opacity="0.18" />

    <g transform="translate(54 86)">
      <circle cx="62" cy="66" r="52" fill="none" stroke="#e6f2ff" stroke-width="18" />
      <path d="M62 14a52 52 0 0 1 49 69" fill="none" stroke="#14b8a6" stroke-width="18" stroke-linecap="round" />
      <path d="M111 83a52 52 0 0 1-56 35" fill="none" stroke="#60a5fa" stroke-width="18" stroke-linecap="round" opacity="0.85" />
      <path d="M26 168h150" stroke="#14b8a6" stroke-width="10" stroke-linecap="round" opacity="0.65" />
      <path d="M26 200h122" stroke="#14b8a6" stroke-width="10" stroke-linecap="round" opacity="0.45" />
      <path d="M26 232h132" stroke="#14b8a6" stroke-width="10" stroke-linecap="round" opacity="0.35" />
    </g>
  </g>

  <g transform="translate(390 360)">
    <g opacity="0.95" filter="url(#shadowTiny)">
      <polygon points="0,120 210,40 520,120 310,200" fill="#ffffff" />
      <polygon points="0,120 310,200 310,310 0,232" fill="#eef2f7" />
      <polygon points="520,120 310,200 310,310 520,232" fill="#e5e7eb" />
    </g>

    <g transform="translate(96 14)" filter="url(#shadowTiny)">
      <polygon points="0,128 56,96 112,128 56,160" fill="#fef3c7" />
      <polygon points="0,128 56,160 56,220 0,188" fill="#fde68a" />
      <polygon points="112,128 56,160 56,220 112,188" fill="#fbbf24" />
    </g>

    <g transform="translate(176 6)" filter="url(#shadowTiny)">
      <polygon points="0,128 58,94 116,128 58,162" fill="#bfdbfe" />
      <polygon points="0,128 58,162 58,232 0,198" fill="#93c5fd" />
      <polygon points="116,128 58,162 58,232 116,198" fill="#3b82f6" opacity="0.9" />
    </g>

    <g transform="translate(264 0)" filter="url(#shadowTiny)">
      <polygon points="0,128 60,92 120,128 60,164" fill="#a7f3d0" />
      <polygon points="0,128 60,164 60,246 0,210" fill="#6ee7b7" />
      <polygon points="120,128 60,164 60,246 120,210" fill="#14b8a6" opacity="0.92" />
    </g>

    <g transform="translate(350 -48)" filter="url(#shadowTiny)">
      <polygon points="0,180 62,144 124,180 62,216" fill="#fed7aa" />
      <polygon points="0,180 62,216 62,312 0,276" fill="#fdba74" />
      <polygon points="124,180 62,216 62,312 124,276" fill="#f59e0b" opacity="0.92" />
    </g>
    <g transform="translate(438 -70)" filter="url(#shadowTiny)">
      <polygon points="0,200 62,164 124,200 62,236" fill="#fed7aa" />
      <polygon points="0,200 62,236 62,366 0,330" fill="#fdba74" />
      <polygon points="124,200 62,236 62,366 124,330" fill="#f59e0b" opacity="0.92" />
    </g>

    <g transform="translate(248 128)">
      <g transform="translate(0 0)">
        <ellipse cx="0" cy="12" rx="66" ry="18" fill="#0f172a" opacity="0.08" />
        <circle cx="-22" cy="-20" r="16" fill="#111827" opacity="0.85" />
        <path d="M-34-26c10-10 20-12 30-8" fill="none" stroke="#111827" stroke-width="10" stroke-linecap="round" opacity="0.95" />

        <path d="M-48 16c16-20 44-20 62 0v46c-12 10-50 10-62 0z" fill="#14b8a6" opacity="0.96" />

        <path d="M-6 30l38-20 26 46-40 22z" fill="#f59e0b" opacity="0.95" />
        <path d="M-3 32l34-18" stroke="#ffffff" stroke-opacity="0.65" stroke-width="6" stroke-linecap="round" />

        <path d="M-40 62l36 22" stroke="#2563eb" stroke-width="14" stroke-linecap="round" opacity="0.85" />
        <path d="M-16 76l46 30" stroke="#2563eb" stroke-width="14" stroke-linecap="round" opacity="0.85" />
        <path d="M25 104l18 0" stroke="#111827" stroke-width="10" stroke-linecap="round" opacity="0.6" />
        <path d="M6 90l16 20" stroke="#111827" stroke-width="10" stroke-linecap="round" opacity="0.6" />
      </g>
    </g>
  </g>

  <g opacity="0.85">
    <path d="M150 450c30-40 66-58 120-66" fill="none" stroke="#2563eb" stroke-width="10" stroke-linecap="round" stroke-opacity="0.18" />
    <path d="M124 470c10 6 18 10 26 10s16-4 26-10" fill="none" stroke="#2563eb" stroke-width="10" stroke-linecap="round" stroke-opacity="0.18" />
  </g>
</svg>
